{
	"asset":{
		"generator":"Khronos glTF Blender I/O v4.0.44",
		"version":"2.0"
	},
	"scene":0,
	"scenes":[
		{
			"name":"Scene",
			"nodes":[
				0,
				1
			]
		}
	],
	"nodes":[
		{
			"mesh":0,
			"name":"Cylinder.010",
			"rotation":[
				0.11584645509719849,
				0.7902524471282959,
				-0.10639848560094833,
				0.5922499895095825
			],
			"scale":[
				0.09282396733760834,
				0.09282397478818893,
				0.09282395988702774
			],
			"translation":[
				0.258603036403656,
				1.114562749862671,
				-0.23753389716148376
			]
		},
		{
			"mesh":1,
			"name":"Cylinder.011",
			"rotation":[
				0.15180103480815887,
				0.6215915083885193,
				0.08025375008583069,
				0.7642903923988342
			],
			"scale":[
				0.08858158439397812,
				0.08858157694339752,
				0.08858157694339752
			],
			"translation":[
				-0.011315032839775085,
				1.4072415828704834,
				-0.08822795748710632
			]
		}
	],
	"materials":[
		{
			"doubleSided":true,
			"name":"Material.012",
			"pbrMetallicRoughness":{}
		}
	],
	"meshes":[
		{
			"name":"Cylinder.010",
			"primitives":[
				{
					"attributes":{
						"POSITION":0,
						"NORMAL":1,
						"TEXCOORD_0":2
					},
					"indices":3,
					"material":0
				}
			]
		},
		{
			"name":"Cylinder.011",
			"primitives":[
				{
					"attributes":{
						"POSITION":4,
						"NORMAL":5,
						"TEXCOORD_0":6
					},
					"indices":7,
					"material":0
				}
			]
		}
	],
	"accessors":[
		{
			"bufferView":0,
			"componentType":5126,
			"count":10787,
			"max":[
				9.117982864379883,
				16.078418731689453,
				1.3945324420928955
			],
			"min":[
				-18.607114791870117,
				-16.905366897583008,
				-12.16202163696289
			],
			"type":"VEC3"
		},
		{
			"bufferView":1,
			"componentType":5126,
			"count":10787,
			"type":"VEC3"
		},
		{
			"bufferView":2,
			"componentType":5126,
			"count":10787,
			"type":"VEC2"
		},
		{
			"bufferView":3,
			"componentType":5123,
			"count":57984,
			"type":"SCALAR"
		},
		{
			"bufferView":4,
			"componentType":5126,
			"count":16778,
			"max":[
				15.982961654663086,
				11.053077697753906,
				11.139791488647461
			],
			"min":[
				-17.773574829101562,
				-19.749086380004883,
				-1.7726203203201294
			],
			"type":"VEC3"
		},
		{
			"bufferView":5,
			"componentType":5126,
			"count":16778,
			"type":"VEC3"
		},
		{
			"bufferView":6,
			"componentType":5126,
			"count":16778,
			"type":"VEC2"
		},
		{
			"bufferView":7,
			"componentType":5123,
			"count":91008,
			"type":"SCALAR"
		}
	],
	"bufferViews":[
		{
			"buffer":0,
			"byteLength":129444,
			"byteOffset":0,
			"target":34962
		},
		{
			"buffer":0,
			"byteLength":129444,
			"byteOffset":129444,
			"target":34962
		},
		{
			"buffer":0,
			"byteLength":86296,
			"byteOffset":258888,
			"target":34962
		},
		{
			"buffer":0,
			"byteLength":115968,
			"byteOffset":345184,
			"target":34963
		},
		{
			"buffer":0,
			"byteLength":201336,
			"byteOffset":461152,
			"target":34962
		},
		{
			"buffer":0,
			"byteLength":201336,
			"byteOffset":662488,
			"target":34962
		},
		{
			"buffer":0,
			"byteLength":134224,
			"byteOffset":863824,
			"target":34962
		},
		{
			"buffer":0,
			"byteLength":182016,
			"byteOffset":998048,
			"target":34963
		}
	],
	"buffers":[
		{
			"byteLength":1180064,
			"uri":"scene.bin"
		}
	]
}
